<?xml version="1.0" encoding="UTF-8" standalone="no"?>
<!-- Created with Inkscape (http://www.inkscape.org/) -->

<svg
   xmlns:dc="http://purl.org/dc/elements/1.1/"
   xmlns:cc="http://creativecommons.org/ns#"
   xmlns:rdf="http://www.w3.org/1999/02/22-rdf-syntax-ns#"
   xmlns:svg="http://www.w3.org/2000/svg"
   xmlns="http://www.w3.org/2000/svg"
   xmlns:sodipodi="http://sodipodi.sourceforge.net/DTD/sodipodi-0.dtd"
   xmlns:inkscape="http://www.inkscape.org/namespaces/inkscape"
   width="1080"
   height="1080"
   id="svg2"
   version="1.1"
   inkscape:version="0.48.5 r10040"
   sodipodi:docname="New document 1">
  <defs
     id="defs4">
    <clipPath
       id="clipPath16"
       clipPathUnits="userSpaceOnUse">
      <path
         id="path18"
         d="m 0,425.197 425.197,0 L 425.197,0 0,0 0,425.197 z" />
    </clipPath>
  </defs>
  <sodipodi:namedview
     id="base"
     pagecolor="#ffffff"
     bordercolor="#666666"
     borderopacity="1.0"
     inkscape:pageopacity="0.0"
     inkscape:pageshadow="2"
     inkscape:zoom="0.86"
     inkscape:cx="492.44186"
     inkscape:cy="494.89108"
     inkscape:document-units="in"
     inkscape:current-layer="layer3"
     showgrid="false"
     units="in"
     inkscape:window-width="2046"
     inkscape:window-height="1210"
     inkscape:window-x="0"
     inkscape:window-y="1"
     inkscape:window-maximized="0" />
  <metadata
     id="metadata7">
    <rdf:RDF>
      <cc:Work
         rdf:about="">
        <dc:format>image/svg+xml</dc:format>
        <dc:type
           rdf:resource="http://purl.org/dc/dcmitype/StillImage" />
        <dc:title></dc:title>
      </cc:Work>
    </rdf:RDF>
  </metadata>
  <g
     inkscape:groupmode="layer"
     id="layer2"
     inkscape:label="background">
    <rect
       style="fill:#afdde9;fill-opacity:1;fill-rule:evenodd;stroke:none"
       id="rect3318"
       width="1080"
       height="1080"
       x="1.4871489e-07"
       y="0" />
  </g>
  <g
     inkscape:label="wrencher"
     inkscape:groupmode="layer"
     id="layer1"
     transform="translate(0,27.64025)">
    <g
       transform="matrix(2.6285733,0,0,-2.6285733,-18.830872,1071.1911)"
       inkscape:label="b495b90bdd1b6902660764e2f890e833-hack-a-day_logo"
       id="g10">
      <g
         transform="translate(166.335,283.6865)"
         id="g20">
        <path
           inkscape:connector-curvature="0"
           id="path22"
           style="fill:#231f20;fill-opacity:1;fill-rule:nonzero;stroke:none"
           d="m 0,0 -41.308,37.179 c 0.425,2.457 0.66,4.979 0.66,7.557 0,24.33 -19.724,44.054 -44.055,44.054 -4.188,0 -8.235,-0.597 -12.072,-1.688 L -69.017,62.117 -99.704,27.114 -128.04,52.617 c -0.462,-2.558 -0.717,-5.189 -0.717,-7.881 0,-24.331 19.724,-44.054 44.054,-44.054 4.304,0 8.458,0.628 12.39,1.779 L -32.34,-33.517 C -24.419,-19.642 -13.27,-8.079 0,0" />
      </g>
      <g
         transform="translate(386.9023,336.3037)"
         id="g24">
        <path
           inkscape:connector-curvature="0"
           id="path26"
           style="fill:#231f20;fill-opacity:1;fill-rule:nonzero;stroke:none"
           d="M 0,0 -28.336,-25.503 -59.023,9.5 -31.264,34.484 c -3.838,1.092 -7.884,1.689 -12.072,1.689 -24.332,0 -44.055,-19.724 -44.055,-44.054 0,-2.578 0.235,-5.1 0.659,-7.557 l -42.584,-38.329 c 13.045,-8.383 23.925,-20.183 31.543,-34.234 l 42.046,37.845 c 3.932,-1.152 8.086,-1.78 12.391,-1.78 24.33,0 44.053,19.724 44.053,44.055 C 0.717,-5.189 0.463,-2.559 0,0" />
      </g>
      <g
         transform="translate(151.8877,128.5078)"
         id="g28">
        <path
           inkscape:connector-curvature="0"
           id="path30"
           style="fill:#231f20;fill-opacity:1;fill-rule:nonzero;stroke:none"
           d="M 0,0 C -11.423,10.583 -20.307,24.179 -25.558,39.621 L -57.866,10.542 c -3.932,1.151 -8.086,1.779 -12.39,1.779 -24.33,0 -44.054,-19.723 -44.054,-44.054 0,-2.692 0.255,-5.323 0.717,-7.881 l 28.336,25.503 30.688,-35.003 -27.759,-24.985 c 3.838,-1.091 7.885,-1.688 12.072,-1.688 24.331,0 44.055,19.724 44.055,44.054 0,2.578 -0.235,5.1 -0.659,7.557 L 0,0 z" />
      </g>
      <g
         transform="translate(343.5664,140.8291)"
         id="g32">
        <path
           inkscape:connector-curvature="0"
           id="path34"
           style="fill:#231f20;fill-opacity:1;fill-rule:nonzero;stroke:none"
           d="m 0,0 c -4.305,0 -8.459,-0.628 -12.391,-1.779 l -34.713,31.243 c -4.917,-15.64 -13.535,-29.48 -24.748,-40.349 l 28.456,-25.612 c -0.424,-2.457 -0.659,-4.98 -0.659,-7.558 0,-24.33 19.723,-44.053 44.055,-44.053 4.188,0 8.234,0.596 12.072,1.688 L -15.688,-61.436 15,-26.433 43.336,-51.936 c 0.463,2.559 0.717,5.19 0.717,7.881 C 44.053,-19.724 24.33,0 0,0" />
      </g>
      <g
         transform="translate(262.5059,173.6445)"
         id="g36">
        <path
           inkscape:connector-curvature="0"
           id="path38"
           style="fill:#231f20;fill-opacity:1;fill-rule:nonzero;stroke:none"
           d="M 0,0 C -1.355,-1.192 -4.443,-3.055 -5.908,-0.994 -6.396,-0.31 -6.49,0.549 -6.676,1.344 -6.891,2.252 -7.25,3.115 -7.66,3.95 c -0.479,0.976 -1.117,1.928 -1.82,2.754 -2.6,3.048 -6.393,5.281 -10.073,6.757 -2.709,1.087 -5.515,1.902 -8.197,3.06 -2.297,0.991 -4.67,2.178 -6.41,4.02 -1.977,2.091 -2.268,4.687 -2.567,7.421 -0.789,7.215 7.891,17.574 21.479,17.574 13.59,0 24.603,-11.015 24.603,-24.603 0,-2.688 -0.406,-5.502 -1.173,-8.075 C 7.865,11.802 7.488,10.76 7.047,9.749 5.449,6.1 3,2.637 0,0 m -51.906,-21.29 c -4.508,0 -8.163,-18.129 -8.163,-6.109 0,12.019 3.655,24.763 8.163,24.763 4.508,0 8.162,-12.744 8.162,-24.763 0,-12.02 -3.654,6.109 -8.162,6.109 m -15.181,49.252 c -0.299,-2.734 -0.591,-5.33 -2.566,-7.421 -1.74,-1.842 -4.115,-3.029 -6.41,-4.02 -2.682,-1.158 -5.489,-1.973 -8.198,-3.06 -3.678,-1.476 -7.471,-3.709 -10.071,-6.757 -0.704,-0.826 -1.342,-1.778 -1.821,-2.754 -0.41,-0.835 -0.77,-1.698 -0.984,-2.606 -0.187,-0.795 -0.281,-1.654 -0.767,-2.338 -1.465,-2.061 -4.554,-0.198 -5.909,0.994 -3,2.637 -5.449,6.1 -7.046,9.749 -0.443,1.011 -0.82,2.053 -1.136,3.109 -0.769,2.573 -1.175,5.387 -1.175,8.075 0,13.588 11.016,24.603 24.604,24.603 13.588,0 22.269,-10.359 21.479,-17.574 M 31.08,26.986 c 0,48.691 -37.154,88.162 -82.987,88.162 -45.833,0 -82.988,-39.471 -82.988,-88.162 0,-29.962 14.073,-56.429 35.576,-72.361 -1.455,-2.354 -2.31,-5.118 -2.31,-8.089 0,-8.518 6.906,-15.427 15.426,-15.427 6.697,0 12.381,4.277 14.513,10.241 1.905,-0.496 3.835,-0.92 5.789,-1.273 2.446,-5.289 7.784,-8.968 13.994,-8.968 6.21,0 11.55,3.679 13.995,8.968 1.953,0.353 3.883,0.777 5.787,1.273 2.133,-5.964 7.816,-10.241 14.514,-10.241 8.519,0 15.425,6.909 15.425,15.427 0,2.971 -0.853,5.735 -2.308,8.09 21.502,15.932 35.574,42.398 35.574,72.36" />
      </g>
    </g>
  </g>
  <g
     inkscape:groupmode="layer"
     id="layer3"
     inkscape:label="holes">
    <g
       id="g4093">
      <path
         transform="matrix(1.4884616,0,0,1.1382352,-158.16638,-105.93225)"
         d="m 315.11628,748.02325 a 7.5581393,9.8837214 0 1 1 -15.11628,0 7.5581393,9.8837214 0 1 1 15.11628,0 z"
         sodipodi:ry="9.8837214"
         sodipodi:rx="7.5581393"
         sodipodi:cy="748.02325"
         sodipodi:cx="307.55814"
         id="path4089"
         style="fill:#ff0000;fill-opacity:1;fill-rule:evenodd;stroke:none"
         sodipodi:type="arc" />
      <path
         sodipodi:type="arc"
         style="fill:#ff0000;fill-opacity:1;fill-rule:evenodd;stroke:none"
         id="path4091"
         sodipodi:cx="307.55814"
         sodipodi:cy="748.02325"
         sodipodi:rx="7.5581393"
         sodipodi:ry="9.8837214"
         d="m 315.11628,748.02325 a 7.5581393,9.8837214 0 1 1 -15.11628,0 7.5581393,9.8837214 0 1 1 15.11628,0 z"
         transform="matrix(1.4884616,0,0,1.1382352,317.41502,-105.93225)" />
    </g>
    <g
       id="g4097"
       transform="translate(0,-411.62791)">
      <path
         sodipodi:type="arc"
         style="fill:#ff0000;fill-opacity:1;fill-rule:evenodd;stroke:none"
         id="path4099"
         sodipodi:cx="307.55814"
         sodipodi:cy="748.02325"
         sodipodi:rx="7.5581393"
         sodipodi:ry="9.8837214"
         d="m 315.11628,748.02325 a 7.5581393,9.8837214 0 1 1 -15.11628,0 7.5581393,9.8837214 0 1 1 15.11628,0 z"
         transform="matrix(1.4884616,0,0,1.1382352,-158.16638,-105.93225)" />
      <path
         transform="matrix(1.4884616,0,0,1.1382352,317.41502,-105.93225)"
         d="m 315.11628,748.02325 a 7.5581393,9.8837214 0 1 1 -15.11628,0 7.5581393,9.8837214 0 1 1 15.11628,0 z"
         sodipodi:ry="9.8837214"
         sodipodi:rx="7.5581393"
         sodipodi:cy="748.02325"
         sodipodi:cx="307.55814"
         id="path4101"
         style="fill:#ff0000;fill-opacity:1;fill-rule:evenodd;stroke:none"
         sodipodi:type="arc" />
    </g>
    <g
       id="g4111"
       transform="translate(13.703488,17.44186)">
      <path
         transform="matrix(1.4884616,0,0,1.1382352,-29.096617,-419.88574)"
         d="m 315.11628,748.02325 c 0,5.45863 -3.3839,9.88373 -7.55814,9.88373 -4.17425,0 -7.55814,-4.4251 -7.55814,-9.88373 0,-5.45862 3.38389,-9.88372 7.55814,-9.88372 4.17424,0 7.55814,4.4251 7.55814,9.88372 z"
         sodipodi:ry="9.8837214"
         sodipodi:rx="7.5581393"
         sodipodi:cy="748.02325"
         sodipodi:cx="307.55814"
         id="path4105"
         style="fill:#ff0000;fill-opacity:1;fill-rule:evenodd;stroke:none"
         sodipodi:type="arc" />
      <path
         sodipodi:type="arc"
         style="fill:#ff0000;fill-opacity:1;fill-rule:evenodd;stroke:none"
         id="path4107"
         sodipodi:cx="307.55814"
         sodipodi:cy="748.02325"
         sodipodi:rx="7.5581393"
         sodipodi:ry="9.8837214"
         d="m 315.11628,748.02325 c 0,5.45863 -3.3839,9.88373 -7.55814,9.88373 -4.17425,0 -7.55814,-4.4251 -7.55814,-9.88373 0,-5.45862 3.38389,-9.88372 7.55814,-9.88372 4.17424,0 7.55814,4.4251 7.55814,9.88372 z"
         transform="matrix(1.4884616,0,0,1.1382352,158.11269,-419.88574)" />
    </g>
    <g
       transform="translate(13.703488,353.44186)"
       id="g4115">
      <path
         sodipodi:type="arc"
         style="fill:#ff0000;fill-opacity:1;fill-rule:evenodd;stroke:none"
         id="path4117"
         sodipodi:cx="307.55814"
         sodipodi:cy="748.02325"
         sodipodi:rx="7.5581393"
         sodipodi:ry="9.8837214"
         d="m 315.11628,748.02325 c 0,5.45863 -3.3839,9.88373 -7.55814,9.88373 -4.17425,0 -7.55814,-4.4251 -7.55814,-9.88373 0,-5.45862 3.38389,-9.88372 7.55814,-9.88372 4.17424,0 7.55814,4.4251 7.55814,9.88372 z"
         transform="matrix(1.4884616,0,0,1.1382352,-29.096617,-419.88574)" />
      <path
         transform="matrix(1.4884616,0,0,1.1382352,158.11269,-419.88574)"
         d="m 315.11628,748.02325 c 0,5.45863 -3.3839,9.88373 -7.55814,9.88373 -4.17425,0 -7.55814,-4.4251 -7.55814,-9.88373 0,-5.45862 3.38389,-9.88372 7.55814,-9.88372 4.17424,0 7.55814,4.4251 7.55814,9.88372 z"
         sodipodi:ry="9.8837214"
         sodipodi:rx="7.5581393"
         sodipodi:cy="748.02325"
         sodipodi:cx="307.55814"
         id="path4119"
         style="fill:#ff0000;fill-opacity:1;fill-rule:evenodd;stroke:none"
         sodipodi:type="arc" />
    </g>
  </g>
</svg>
